<svg width="96" height="96" xmlns="http://www.w3.org/2000/svg" xmlns:xlink="http://www.w3.org/1999/xlink" overflow="hidden"><defs><clipPath id="clip0"><rect x="29" y="89" width="96" height="96"/></clipPath></defs><g clip-path="url(#clip0)" transform="translate(-29 -89)"><path d="M62.266 135.707 76.973 150.414 91.68 135.707 92.68 134.707 91.266 133.293 90.266 134.293 77.99 146.569C77.9861 146.573 77.9797 146.573 77.9759 146.569 77.9741 146.567 77.973 146.565 77.973 146.562L77.973 107 75.973 107 75.973 146.562C75.9729 146.568 75.9684 146.572 75.9629 146.572 75.9603 146.572 75.9578 146.571 75.956 146.569L63.68 134.293 62.68 133.293 61.266 134.707Z"/><path d="M104 165 50 165 50 145 48 145 48 167 106 167 106 145 104 145 104 165Z"/></g></svg>